<svg width="128" height="128" viewBox="0 0 128 128" fill="none" xmlns="http://www.w3.org/2000/svg">
<path d="M98 0C114.569 0 128 13.4315 128 30V98C128 114.569 114.569 128 98 128H30C13.4315 128 0 114.569 0 98V30C0 13.4315 13.4315 0 30 0H98ZM63.3809 31.001C62.5567 31.006 61.4222 31.0505 60.0781 31.2051C57.4199 31.5108 53.7706 32.2636 50.0449 34.1123C46.2704 35.9852 42.4134 38.9908 39.5371 43.707C36.6662 48.4147 35 54.4537 35 62.04V91C35 94.3137 37.6863 97 41 97C44.3137 97 47 94.3137 47 91V62.04C47 56.2339 48.2614 52.4489 49.7822 49.9551C51.2979 47.4698 53.2975 45.8951 55.3789 44.8623C57.509 43.8054 59.7155 43.3264 61.4492 43.127C62.3011 43.029 62.9973 43.0028 63.4541 43C63.6812 42.9986 63.8458 43.0034 63.9365 43.0068C63.953 43.0075 63.9671 43.0067 63.9785 43.0068L64.0049 43.0088C64.0037 43.0087 64.0024 43.0089 64.001 43.0088C64.0041 43.009 64.0067 43.0096 64.0088 43.0098H64.0098L64.2764 43.0303L64.582 43.0225H64.6357C64.7303 43.0231 64.8973 43.0259 65.125 43.0361C65.5824 43.0567 66.274 43.1073 67.1191 43.2256C68.8405 43.4666 71.0338 43.9684 73.1475 44.9678C75.2354 45.9549 77.1265 47.3669 78.5107 49.4033C79.8698 51.4029 81 54.3832 81 58.9678V91L81.0078 91.3086C81.1684 94.4789 83.7898 97 87 97C90.3137 97 93 94.3137 93 91V58.9678C93 52.2828 91.3085 46.8852 88.4346 42.6572C85.5858 38.4662 81.8325 35.8004 78.2764 34.1191C74.7461 32.4501 71.2949 31.6925 68.7832 31.3408C67.5122 31.1629 66.4403 31.0837 65.6631 31.0488C65.2735 31.0313 64.9548 31.0251 64.7188 31.0234C64.6662 31.0231 64.6176 31.0234 64.5732 31.0234C64.5171 31.0207 64.4539 31.0172 64.3848 31.0146C64.1324 31.0052 63.7938 30.9985 63.3809 31.001Z" fill="url(#paint0_linear_649_8824)"/>
<defs>
<linearGradient id="paint0_linear_649_8824" x1="116.5" y1="9" x2="7.5" y2="116.5" gradientUnits="userSpaceOnUse">
<stop stop-color="#3FF7E2"/>
<stop offset="0.5" stop-color="#4B55FF"/>
<stop offset="0.75" stop-color="#B46CAC"/>
<stop offset="1" stop-color="#FF7870"/>
</linearGradient>
</defs>
</svg>
