<svg width="400" height="400" viewBox="0 0 400 400" fill="none" xmlns="http://www.w3.org/2000/svg">
  <rect width="400" height="400" fill="#f3f4f6"/>
  <path d="M200 120c-44.183 0-80 35.817-80 80s35.817 80 80 80 80-35.817 80-80-35.817-80-80-80zm0 140c-33.137 0-60-26.863-60-60s26.863-60 60-60 60 26.863 60 60-26.863 60-60 60z" fill="#9ca3af"/>
  <path d="M240 160c0 8.284-6.716 15-15 15s-15-6.716-15-15 6.716-15 15-15 15 6.716 15 15z" fill="#9ca3af"/>
  <path d="M160 220l25-25c3.905-3.905 10.235-3.905 14.14 0l10 10 40-40c3.905-3.905 10.235-3.905 14.14 0l16.72 16.72v33.28c0 5.523-4.477 10-10 10H170c-5.523 0-10-4.477-10-10v-5z" fill="#9ca3af"/>
</svg>